# xmcd
#
# Track frame offsets: 
#        150
#        16937
#        34276
#        50733
#        81671
#        106384
#        119700
#        144503
#        161226
#        192406
#        219955
#        237551
#        263576
#        283251
#
# Disc length: 4060 seconds
#
# Revision: 0
# Processed by: cddbd v1.5.2PL0 Copyright (c) Steve Scherf et al.
# Submitted via: ExactAudioCopy v1.0b3
#
DISCID=db0fda0e
DTITLE=Михаил Башаков - Спроси себя
DYEAR=2015
DGENRE=Blues
TTITLE0=01 Сердце полное тишины
TTITLE1=02 Время уходит
TTITLE2=03 Мишель
TTITLE3=04 Русский народный блюз 
TTITLE4=05 Богиня
TTITLE5=06 Фонари
TTITLE6=07 Горожане
TTITLE7=08 Boris' Blues
TTITLE8=09 Черный экран
TTITLE9=10 Друг
TTITLE10=11 Глубокая радость
TTITLE11=12 Спроси себя
TTITLE12=13 Блюз о блюзе
TTITLE13=14 Танго
EXTD=
EXTT0=
EXTT1=
EXTT2=
EXTT3=
EXTT4=
EXTT5=
EXTT6=
EXTT7=
EXTT8=
EXTT9=
EXTT10=
EXTT11=
EXTT12=
EXTT13=
PLAYORDER=
